<svg width="859" height="810" viewBox="0 0 859 810" fill="none" xmlns="http://www.w3.org/2000/svg">
<path d="M858.36 685.223V421.323C858.359 404.771 855.044 388.386 848.61 373.135C842.177 357.884 832.755 344.075 820.9 332.523L515.71 35.1532C492.558 12.6129 461.522 0 429.21 0C396.898 0 365.862 12.6129 342.71 35.1532L37.46 332.523C25.6052 344.075 16.1833 357.884 9.74968 373.135C3.31608 388.386 0.00104354 404.771 0 421.323V685.223C0 718.11 13.0642 749.65 36.3188 772.904C59.5733 796.159 91.1132 809.223 124 809.223H734.38C750.664 809.223 766.788 806.016 781.833 799.784C796.877 793.553 810.547 784.419 822.061 772.904C833.576 761.39 842.709 747.72 848.941 732.676C855.173 717.632 858.38 701.507 858.38 685.223" fill="#7C0CFF"/>
<path d="M757.53 123.853C757.526 132.009 755.104 139.98 750.57 146.759C746.036 153.539 739.594 158.821 732.058 161.94C724.522 165.058 716.231 165.872 708.232 164.278C700.234 162.685 692.887 158.756 687.122 152.987C681.356 147.219 677.43 139.871 675.841 131.871C674.251 123.872 675.069 115.581 678.191 108.047C681.313 100.512 686.599 94.0726 693.38 89.542C700.162 85.0114 708.134 82.5932 716.29 82.5932C721.706 82.5932 727.07 83.6602 732.074 85.7334C737.078 87.8065 741.625 90.8451 745.454 94.6757C749.284 98.5062 752.322 103.054 754.394 108.058C756.465 113.063 757.531 118.427 757.53 123.843" fill="#F7635E"/>
<path d="M177.51 439.973V516.973C187.92 503.583 199.22 497.973 216.76 497.973C246.52 497.973 274.46 517.303 274.46 566.673V648.163H220.04V566.973C219.45 550.323 211.11 545.263 200.11 545.263C189.41 545.263 177.51 553.263 177.21 570.543V648.163H122.18V439.973H177.51Z" fill="white"/>
<path d="M413.649 501.233H465.089V648.163H414.529L412.18 632.403C399.69 646.683 380.06 651.733 363.7 650.833C320.58 648.163 296.479 617.533 296.479 574.703C296.479 531.283 325.039 497.963 367.859 497.963C388.679 497.963 403.26 505.103 410.99 516.963L413.649 501.233ZM350.89 574.703C350.89 595.223 363.98 606.823 380.33 606.823C398.78 606.823 410.68 591.953 410.68 574.703C410.68 555.073 399.68 542.283 380.33 542.283C363.98 542.283 350.89 554.193 350.89 574.703Z" fill="white"/>
<path d="M551.94 513.733C559.94 503.913 573.94 497.973 592.68 497.973C635.5 497.973 664.06 529.803 664.06 574.703C664.06 621.103 639.98 648.173 596.84 650.843C580.5 651.733 560.84 646.683 548.38 632.403L545.99 648.173H497.18V439.973H551.91L551.94 513.733ZM550.75 576.193C550.75 591.663 561.75 606.823 580.19 606.823C596.56 606.823 609.63 595.233 609.63 574.703C609.63 554.173 596.56 542.283 580.18 542.283C560.84 542.283 550.74 558.343 550.74 576.193" fill="white"/>
<path d="M743.47 503.623H688.45V648.163H743.47V503.623Z" fill="white"/>
<path d="M301.01 423.343V462.783C291.515 466.32 281.472 468.155 271.34 468.203C251.566 468.203 236.546 462.637 226.28 451.503C216.01 440.373 210.88 423.673 210.88 403.903V356.683H177.51V318.393H210.88V285.283L262.99 268.593V318.393H298.11V356.683H262.99V403.903C262.99 410.813 265.05 417.293 269.18 420.843C273.31 424.393 278.43 426.173 284.58 426.173C288.03 426.173 295.25 424.493 301.01 423.343Z" fill="white"/>
<path d="M465.09 318.393V464.643H414.18V445.063C404.767 459.65 390.85 466.947 372.43 466.953C353.824 466.953 339.957 461.77 330.83 451.403C321.704 441.037 317.147 425.203 317.16 403.903V318.393H369.18V405.333C369.18 419.733 375.417 426.933 387.89 426.933C395.177 426.933 401.08 424.34 405.6 419.153C410.12 413.967 412.374 407.06 412.36 398.433V318.433L465.09 318.393Z" fill="white"/>
</svg>
